<svg xmlns="http://www.w3.org/2000/svg" viewBox="0 0 512 512"><rect width="512" height="512" fill="#006ab3"/><g transform="translate(51.2 51.2) scale(0.8)"><path d="M256 112a86 86 0 0 0-86 86v55l-25 37h222l-25-37v-55a86 86 0 0 0-86-86zm0 248a36 36 0 0 0 36-36h-72a36 36 0 0 0 36 36z" fill="#fff"/><rect x="136" y="392" width="120" height="22" rx="11" fill="#d61d25"/><rect x="256" y="392" width="120" height="22" rx="11" fill="#ffcf20"/><rect x="236" y="392" width="40" height="22" fill="#d61d25"/><rect x="256" y="392" width="20" height="22" fill="#ffcf20"/></g></svg>
